<svg xmlns="http://www.w3.org/2000/svg" xmlns:xlink="http://www.w3.org/1999/xlink" version="1.1" enable-background="new 0 0 1000 1000" xml:space="preserve" width="1000" height="1000" style=""><rect id="backgroundrect" width="100%" height="100%" x="0" y="0" fill="none" stroke="none"/>
<metadata> Svg Vector Icons : http://www.onlinewebfonts.com/icon </metadata>

<g class="currentLayer" style=""><title>Layer 1</title><g id="svg_1" class="" fill="#ffffff" fill-opacity="1"><path d="M703.5,990H154.1c-2.4,0-4.9-0.3-7.3-0.8c-3.9-0.9-24.4-6.1-43.9-26.6c-16.3-17.2-35.7-49.5-35.7-106.2c0-86.3-0.6-700.2-0.6-715.9c-0.1-4.2,0-27.5,7.8-53.1c12.4-40.9,38.9-68,74.5-76.5c2.6-0.6,5.3-0.9,7.9-0.9h638.5c0.8,0,1.7,0,2.5,0.1c3.3,0.2,33.5,2.8,64.6,18.4c45.6,22.8,70.7,62.5,70.7,111.7c0,107.7,0.1,653.9,0.1,659.4c0,10.4-4.7,20.3-12.9,26.8L724.9,982.5C718.8,987.4,711.2,990,703.5,990z M160.3,921.5h531.2l173.3-138.4c0-92.6-0.1-545.8-0.1-642.9c0-22.7-10-38.5-31.4-49.7c-17-8.9-35.1-11.4-39.5-12H161.8c-26,9.8-26.6,60.4-26.6,61c0,0.2,0,0.5,0,0.7c0,6.3,0.6,629.2,0.6,716.2C135.8,903.5,153.6,917.8,160.3,921.5z" id="svg_2" fill="#ffffff" fill-opacity="1"/><path d="M473.6,206.5H241.8c-20.9,0-37.8-16.9-37.8-37.8c0-20.9,16.9-37.8,37.8-37.8h231.8c20.9,0,37.8,16.9,37.8,37.8C511.3,189.6,494.4,206.5,473.6,206.5z" id="svg_3" fill="#ffffff" fill-opacity="1"/><path d="M760.8,398h-519c-20.9,0-37.8-16.9-37.8-37.8c0-20.9,16.9-37.8,37.8-37.8h519c20.9,0,37.8,16.9,37.8,37.8C798.5,381,781.6,398,760.8,398z" id="svg_4" fill="#ffffff" fill-opacity="1"/><path d="M760.8,584.4h-519c-20.9,0-37.8-16.9-37.8-37.8c0-20.9,16.9-37.8,37.8-37.8h519c20.9,0,37.8,16.9,37.8,37.8C798.5,567.5,781.6,584.4,760.8,584.4z" id="svg_5" fill="#ffffff" fill-opacity="1"/><path d="M649.9,906.9c-20.9,0-37.8-16.9-37.8-37.8V712.9c0-20.9,16.9-37.8,37.8-37.8h161.2c20.9,0,37.8,16.9,37.8,37.8c0,20.9-16.9,37.8-37.8,37.8H687.7v118.4C687.7,889.9,670.8,906.9,649.9,906.9z" id="svg_6" fill="#ffffff" fill-opacity="1"/></g></g></svg>