<?xml version="1.0" encoding="utf-8"?>
<!-- Svg Vector Icons : http://www.onlinewebfonts.com/icon -->
<!DOCTYPE svg PUBLIC "-//W3C//DTD SVG 1.1//EN" "http://www.w3.org/Graphics/SVG/1.1/DTD/svg11.dtd">
<svg version="1.1" xmlns="http://www.w3.org/2000/svg" xmlns:xlink="http://www.w3.org/1999/xlink" x="0px" y="0px" viewBox="0 0 1000 1000" enable-background="new 0 0 1000 1000" xml:space="preserve">
<metadata> Svg Vector Icons : http://www.onlinewebfonts.com/icon </metadata>
<g><g transform="translate(0.000000,512.000000) scale(0.100000,-0.100000)"><path d="M525.2,4990.3c-143.7-49.8-249.1-124.6-314.3-228c-120.7-189.7-113.1,23-109.2-3453.3l5.7-3171.6l49.8-105.4c70.9-153.3,138-220.4,281.7-291.3l128.4-63.2l684.1-5.8l686-5.8v-1101.9c0-1220.7-3.8-1186.2,124.6-1282.1c72.8-57.5,155.2-76.7,253-57.5c65.2,11.5,210.8,149.5,1289.7,1228.4l1216.9,1215l2309.2,3.8l2309.2,5.8l107.3,49.8c136.1,63.2,239.5,166.7,302.8,302.8l49.8,107.3v3209.9v3209.9l-63.2,128.4c-70.9,143.7-138,210.8-291.3,281.7l-105.4,49.8l-4407.6,3.8C835.7,5024.8,621,5024.8,525.2,4990.3z M9154.5,4363.6c28.8-21.1,70.9-63.2,92-92c40.2-51.7,40.2-53.7,40.2-2924.3s0-2872.6-40.2-2924.4c-21.1-28.7-63.3-70.9-92-92c-51.7-40.2-67.1-40.2-2259.4-49.8l-2207.6-9.6L4563-1784c-115-51.7-197.4-128.4-1067.4-996.5l-944.8-940.9v879.6c0,977.3,1.9,960.1-130.3,1061.7l-67.1,51.7l-724.4,9.6c-693.7,9.6-726.3,11.5-776.1,49.8c-28.7,21.1-70.9,63.2-92,92c-40.2,51.7-40.2,59.4-46,2872.6c-1.9,1552.2,0,2847.7,5.7,2882.2c13.4,76.7,93.9,174.4,172.5,208.9c47.9,21.1,774.2,24.9,4133.6,21.1l4076.1-3.8L9154.5,4363.6z"/><path d="M2727.1,2847.8c-34.5-17.3-86.2-61.3-115-97.7c-74.7-97.7-72.8-256.8,0-352.6c101.6-134.1,72.8-130.3,1165.1-130.3s1063.6-3.8,1165.1,130.3c74.8,97.7,74.8,254.9,0,352.6c-101.6,134.1-72.8,130.3-1169,130.3C2903.4,2880.4,2782.7,2876.6,2727.1,2847.8z"/><path d="M2727.1,1621.3c-34.5-17.3-86.2-61.3-115-97.7c-74.7-97.7-72.8-256.8,0-352.6c107.3-139.9-65.2-130.3,2391.6-130.3c2456.8,0,2284.3-9.6,2391.6,130.3c74.7,97.7,74.7,254.9,0,352.6c-107.3,139.9,67.1,130.3-2395.4,130.3C2993.5,1653.9,2784.6,1650.1,2727.1,1621.3z"/><path d="M2727.1,394.9c-34.5-17.3-86.2-61.3-115-97.7c-74.7-97.7-72.8-256.8,0-352.6c105.4-138,3.8-130.3,1778.4-130.3c1774.5,0,1673-7.7,1778.4,130.3c42.2,55.6,51.7,88.1,51.7,176.3c0,88.1-9.6,120.7-51.7,176.3c-105.4,138-3.8,130.3-1782.2,130.3C2947.5,427.5,2784.6,423.6,2727.1,394.9z"/></g></g>
</svg>