<?xml version="1.0" standalone="no"?>
<!DOCTYPE svg PUBLIC "-//W3C//DTD SVG 20010904//EN"
 "http://www.w3.org/TR/2001/REC-SVG-20010904/DTD/svg10.dtd">
<svg version="1.0" xmlns="http://www.w3.org/2000/svg"
 width="320.000000pt" height="320.000000pt" viewBox="0 0 320.000000 320.000000"
 preserveAspectRatio="xMidYMid meet"  style="fill:#E1E1E1;fill-opacity:1;stroke:#E1E1E1;stroke-width:12;stroke-linecap:butt;stroke-linejoin:round;stroke-miterlimit:4;stroke-opacity:1;stroke-dasharray:none">

<g transform="translate(0.000000,320.000000) scale(0.100000,-0.100000)"
fill="#E1E1E1" stroke="none">
<path d="M2595 2844 c-5 -2 -244 -46 -529 -98 l-519 -95 -411 59 c-226 33
-424 60 -439 60 -42 0 -83 -25 -99 -62 -8 -18 -21 -79 -28 -136 -12 -90 -16
-103 -34 -107 -12 -3 -119 -23 -239 -45 -120 -22 -226 -44 -237 -50 -29 -15
-60 -60 -60 -86 0 -14 31 -194 70 -402 38 -207 114 -619 169 -915 61 -333 105
-547 116 -563 9 -14 30 -32 48 -40 30 -14 70 -8 788 124 l756 139 452 -65
c436 -63 452 -65 486 -49 19 9 41 29 49 44 11 23 46 213 46 253 0 6 9 10 21
10 26 0 76 49 85 84 3 14 -6 89 -20 169 l-26 144 70 488 c39 269 75 517 80
552 13 77 7 103 -30 138 -25 24 -45 30 -186 51 -86 13 -160 28 -164 34 -4 6
-17 70 -29 143 -26 151 -40 186 -80 210 -26 15 -81 21 -106 11z m-30 -295 l7
-46 -139 19 c-76 11 -145 22 -153 25 -8 3 48 18 125 32 77 15 143 25 147 22 3
-3 9 -27 13 -52z m-710 -169 c578 -83 1062 -154 1076 -158 l25 -7 -106 -732
c-58 -403 -108 -734 -110 -737 -6 -5 -36 -1 -1249 174 -497 71 -906 132 -908
134 -4 4 21 180 158 1120 27 186 49 343 49 347 0 5 3 9 8 9 4 0 480 -67 1057
-150z m-1335 -153 c0 -4 -119 -827 -123 -847 -1 -8 -36 169 -78 393 -73 398
-75 408 -55 413 85 20 256 48 256 41z m708 -1502 c3 -3 0 -5 -7 -5 -7 0 -160
-27 -340 -60 -180 -33 -332 -60 -337 -60 -6 0 -18 48 -28 108 -10 59 -20 112
-23 118 -4 11 723 -89 735 -101z"/>
<path d="M1218 2179 c-21 -6 -57 -28 -82 -50 -114 -100 -91 -275 45 -343 85
-42 165 -32 236 29 168 144 15 423 -199 364z"/>
<path d="M1790 1633 c-136 -157 -240 -267 -249 -267 -9 1 -61 14 -116 28 -257
68 -479 34 -597 -92 -56 -59 -95 -130 -76 -137 7 -2 346 -52 753 -110 1069
-153 1106 -158 1111 -152 6 6 -120 695 -129 704 -4 3 -48 -38 -98 -91 -50 -53
-94 -96 -99 -96 -4 0 -62 108 -129 240 -67 132 -126 240 -130 240 -4 0 -112
-120 -241 -267z"/>
</g>
</svg>
