<svg xmlns="http://www.w3.org/2000/svg" xmlns:xlink="http://www.w3.org/1999/xlink" version="1.1" style="" xml:space="preserve" width="476.737" height="476.737"><rect id="backgroundrect" width="100%" height="100%" x="0" y="0" fill="none" stroke="none"/>
















<g class="currentLayer" style=""><title>Layer 1</title><g id="svg_1" class="" fill="#ffffff" fill-opacity="1">
	<g id="svg_2" fill="#ffffff" fill-opacity="1">
		<g id="svg_3" fill="#ffffff" fill-opacity="1">
			<path style="" d="M238.369,0C106.726,0,0,106.726,0,238.369c0,131.675,106.726,238.369,238.369,238.369     c131.675,0,238.369-106.694,238.369-238.369C476.737,106.726,370.043,0,238.369,0z M365.499,349.607h-254.26     c-8.772,0-15.891-7.151-15.891-15.891c0-8.74,7.119-15.891,15.891-15.891h254.26c8.74,0,15.891,7.151,15.891,15.891     C381.39,342.456,374.239,349.607,365.499,349.607z M365.499,254.26h-254.26c-8.772,0-15.891-7.151-15.891-15.891     c0-8.772,7.119-15.891,15.891-15.891h254.26c8.74,0,15.891,7.119,15.891,15.891C381.39,247.109,374.239,254.26,365.499,254.26z      M365.499,158.912h-254.26c-8.772,0-15.891-7.119-15.891-15.891c0-8.772,7.119-15.891,15.891-15.891h254.26     c8.74,0,15.891,7.119,15.891,15.891C381.39,151.793,374.239,158.912,365.499,158.912z" id="svg_4" fill="#ffffff" fill-opacity="1"/>
		</g>
	</g>
</g><g id="svg_5">
</g><g id="svg_6">
</g><g id="svg_7">
</g><g id="svg_8">
</g><g id="svg_9">
</g><g id="svg_10">
</g><g id="svg_11">
</g><g id="svg_12">
</g><g id="svg_13">
</g><g id="svg_14">
</g><g id="svg_15">
</g><g id="svg_16">
</g><g id="svg_17">
</g><g id="svg_18">
</g><g id="svg_19">
</g></g></svg>