<?xml version="1.0"?>
<svg xmlns="http://www.w3.org/2000/svg" viewBox="0 0 24 24">
    <path d="M 11.5 2 L 8.5 3.71875 L 11.5 5.4375 L 14.5 3.71875 L 11.5 2 z M 8 4.5625 L 8 8 L 11 9.71875 L 11 6.3125 L 8 4.5625 z M 15 4.5625 L 12 6.3125 L 12 9.71875 L 15 8 L 15 4.5625 z M 7 6.125 L 3 7.625 L 3 11.4375 L 5 10.28125 L 5 9 L 7 8.25 L 7 6.125 z M 16 6.125 L 16 8.25 L 18 9 L 18 10.28125 L 20 11.4375 L 20 7.625 L 16 6.125 z M 5.5 11.28125 L 2.5 13 L 5.5 14.71875 L 8.5 13 L 5.5 11.28125 z M 17.5 11.28125 L 14.5 13 L 17.5 14.71875 L 20.5 13 L 17.5 11.28125 z M 2 13.875 L 2 17.28125 L 5 19 L 5 15.59375 L 2 13.875 z M 9 13.875 L 6 15.59375 L 6 19 L 9 17.28125 L 9 13.875 z M 14 13.875 L 14 17.28125 L 17 19 L 17 15.59375 L 14 13.875 z M 21 13.875 L 18 15.59375 L 18 19 L 21 17.28125 L 21 13.875 z M 8.8125 18.40625 L 6.71875 19.59375 L 11.5 22 L 16.28125 19.59375 L 14.1875 18.40625 L 11.5 19.75 L 8.8125 18.40625 z"/>
</svg>
