<svg xmlns="http://www.w3.org/2000/svg" xmlns:xlink="http://www.w3.org/1999/xlink" version="1.1" enable-background="new 0 0 1000 1000" xml:space="preserve" width="1000" height="1000"><rect id="backgroundrect" width="100%" height="100%" x="0" y="0" fill="none" stroke="none"/>
<metadata> Svg Vector Icons : http://www.onlinewebfonts.com/icon </metadata>

<g class="currentLayer" style=""><title>Layer 1</title><g id="svg_1" class="selected" fill="#ffffff" fill-opacity="1"><path d="M585.9,790.2333333134651 l-52.5,-31.5 l54.4,-91.7 c-10,-1.6 -20,-3 -30.1,-4.3 c-3.5,-0.4 -7.4,-0.5 -10.6,-2 c-16.1,-6.9 -25.2,-23.1 -22.9,-40.4 c1.4,-10.5 4.8,-20.2 9.9,-29.3 c3.5,-6.6 8.5,-12.4 11.7,-19.2 c2.3,-5 6.4,-8 10.3,-11.4 c12.1,-10.5 23.1,-21.8 33,-34.2 c23.9,-30 41.3,-63.7 54.1,-99.7 c0.9,-2.7 1.8,-5.1 2.8,-8 c1.2,0.4 2.1,0.5 2.8,0.9 c8.3,3.5 16.3,2.5 23.2,-2.5 c5.3,-3.6 10.5,-8 14.2,-13.1 c18.4,-26.1 24.3,-55 17.7,-86.2 c-1.4,-7.1 -4.4,-13.7 -9,-19.2 c-5.7,-6.7 -12.6,-10.1 -21.5,-9 c-1.2,0.2 -2.7,0 -4.3,0 v-3.4 c-0.2,-19.3 0.4,-38.8 -0.5,-58.4 c-1.1,-26.3 -5.5,-52 -13.5,-77.2 c-9.8,-30.5 -24.5,-58.2 -47.4,-81.2 c-25,-25.4 -55.7,-40.8 -89.9,-49.8 c-32.6,-8.7 -66,-11 -99.7,-9.9 c-25.5,0.9 -50.6,4.6 -74.9,12.4 c-62.3,19.7 -106.2,59.4 -130.9,120.1 c-12.1,29.6 -17.7,60.7 -20,92.4 c-1.6,21.3 -1.1,42.6 0.2,63.9 v4.6 c-0.7000000000000001,0 -0.9,0.2 -1.1,0.2 c-0.5,0 -1.2,0.2 -1.8,0 c-11,-2.1 -19.3,2.3 -25,11.2 c-3.4,5.3 -6.4,11.5 -7.6,17.7 c-6.4,30.3 -0.4,58.5 17,84.1 c2.7,3.9 6.2,7.5 9.9,10.6 c11.7,9.8 21.6,10.3 35.1,2 c0.9,2.5 1.6,4.3 2.1,6 c3.2,7.4 6,14.7 9.2,22 c19,41.9 44.3,79.3 80.5,108.6 c0.9,0.7000000000000001 2.1,1.4 2.1,2.1 c0.2,4.1 3.4,6.2 5.3,9.2 c5.7,8.7 10.8,17.7 14.4,27.5 c2.7,7.4 4.6,15.3 4.3,23.2 c-0.5,17.7 -14.4,33.2 -31.2,35.1 c-40.4,4.6 -80.2,12.4 -119.4,23.6 c-33.9,9.6 -66.7,21.6 -97.6,39 c-18.1,10.3 -35.1,22.2 -49.7,37.1 c-11.7,12.1 -21.5,25.5 -27.5,41.3 c-1.1,2.8 -1.8,6.2 -1.8,9.4 c-0.2,14 0,28 0,42 c0,2 0.2,3.9 0.4,6.4 h534.3 l-10.4,-17.6 l50,-32.1 c6.4,-4.1 8.6,-11.4 5.6,-18 C588.9,792.0333333134652 588.3,791.7333333134651 585.9,790.2333333134651 z" id="svg_2" fill="#ffffff" fill-opacity="1"/><path d="M963.9,839.5333333134652 c-19,-35.7 -7.1,-78.5 26.1,-99.8 l-38,-64.2 c-9.5,7.1 -23.8,9.5 -35.7,9.5 c-40.4,0 -71.3,-33.3 -71.3,-73.7 h-73.7 c0,11.9 -2.4,26.2 -9.5,35.7 c-19,35.7 -64.2,45.2 -99.9,26.2 l-38,64.2 c11.9,7.1 19,14.3 26.2,26.2 c19,35.7 7.1,78.5 -26.2,99.8 l38,64.2 c9.5,-7.1 23.8,-9.5 35.7,-9.5 c40.4,0 71.3,33.3 71.3,71.3 h73.7 c0,-11.9 2.4,-23.8 9.5,-35.7 c19,-35.7 64.2,-45.2 99.9,-26.2 l38,-64.2 C980.5,860.9333333134651 971,851.4333333134651 963.9,839.5333333134652 zM806.9,879.9333333134651 c-55.1,0 -94.5,-59.2 -67.2,-111.5 c10.9,-20.8 31.3,-35.8 54.5,-39.6 c48.7,-7.9 88.8,30.7 88.8,75 C883,844.3333333134651 849.7,879.9333333134651 806.9,879.9333333134651 z" id="svg_3" fill="#ffffff" fill-opacity="1"/></g></g></svg>