<svg xmlns="http://www.w3.org/2000/svg" xmlns:xlink="http://www.w3.org/1999/xlink" version="1.1" style="" xml:space="preserve" width="24.269" height="24.269"><rect id="backgroundrect" width="100%" height="100%" x="0" y="0" fill="none" stroke="none"/>
















<g class="currentLayer" style=""><title>Layer 1</title><g id="svg_1" class="" fill="#ffffff" fill-opacity="1">
	<path style="" d="M7.028,1.242v3.003c0.443-0.064,0.895-0.109,1.358-0.109c1.728,0,3.344,0.47,4.738,1.279h11.145   V1.242H7.028z" id="svg_2" fill="#ffffff" fill-opacity="1"/>
	<path style="" d="M17.538,11.208h6.73V7.033h-9.072C16.305,8.183,17.121,9.612,17.538,11.208z" id="svg_3" fill="#ffffff" fill-opacity="1"/>
	<path style="" d="M17.856,13.607c0,1.24-0.246,2.424-0.678,3.51h7.09v-4.174h-6.445   C17.838,13.163,17.856,13.383,17.856,13.607z" id="svg_4" fill="#ffffff" fill-opacity="1"/>
	<path style="" d="M9.374,23.028h14.895v-4.174H16.27C14.744,21.142,12.251,22.729,9.374,23.028z" id="svg_5" fill="#ffffff" fill-opacity="1"/>
	<path style="" d="M16.77,13.447c0-4.629-3.752-8.383-8.384-8.383S0,8.818,0,13.447c0,4.632,3.754,8.385,8.386,8.385   S16.77,18.079,16.77,13.447z M5.439,18.315c-0.21-0.849,0.512-1.764,1.617-2.038c0.5-0.123,0.986-0.1,1.395,0.046V6.942   c0,0,0.056-0.412,0.599-0.479c0,0-0.008,0.471,2.841,2.46c1.459,1.125,1.454,2.661,1.454,2.661   c-1.897-2.977-3.837-2.871-3.837-2.871l-0.025,8.906H9.48c-0.005,0.751-0.683,1.486-1.655,1.729   C6.72,19.625,5.562,19.099,5.439,18.315z" id="svg_6" fill="#ffffff" fill-opacity="1"/>
</g><g id="svg_7" class="" fill="#ffffff" fill-opacity="1">
</g><g id="svg_8" class="" fill="#ffffff" fill-opacity="1">
</g><g id="svg_9" class="" fill="#ffffff" fill-opacity="1">
</g><g id="svg_10" class="" fill="#ffffff" fill-opacity="1">
</g><g id="svg_11" class="" fill="#ffffff" fill-opacity="1">
</g><g id="svg_12" class="" fill="#ffffff" fill-opacity="1">
</g><g id="svg_13" class="" fill="#ffffff" fill-opacity="1">
</g><g id="svg_14" class="" fill="#ffffff" fill-opacity="1">
</g><g id="svg_15" class="" fill="#ffffff" fill-opacity="1">
</g><g id="svg_16" class="" fill="#ffffff" fill-opacity="1">
</g><g id="svg_17" class="" fill="#ffffff" fill-opacity="1">
</g><g id="svg_18" class="" fill="#ffffff" fill-opacity="1">
</g><g id="svg_19" class="" fill="#ffffff" fill-opacity="1">
</g><g id="svg_20" class="" fill="#ffffff" fill-opacity="1">
</g><g id="svg_21" class="" fill="#ffffff" fill-opacity="1">
</g></g></svg>