<?xml version="1.0" encoding="iso-8859-1"?>
<!-- Generator: Adobe Illustrator 16.0.0, SVG Export Plug-In . SVG Version: 6.00 Build 0)  -->
<!DOCTYPE svg PUBLIC "-//W3C//DTD SVG 1.1//EN" "http://www.w3.org/Graphics/SVG/1.1/DTD/svg11.dtd">
<svg version="1.1" id="Capa_1" xmlns="http://www.w3.org/2000/svg" xmlns:xlink="http://www.w3.org/1999/xlink" x="0px" y="0px"
	 width="421.509px" height="421.509px" viewBox="0 0 421.509 421.509" style="fill:#fff;fill-opacity:1;stroke:#fff;stroke-width:12;stroke-linecap:butt;stroke-linejoin:round;stroke-miterlimit:4;stroke-opacity:1;stroke-dasharray:none"
	 xml:space="preserve">
<g>
	<g>
		<path style="fill:#030303;" d="M29.685,173.681h32.241v-32.232H29.685V173.681z M41.396,153.16h8.82v8.812h-8.82V153.16z"/>
		<path style="fill:#030303;" d="M66.329,173.681h32.238v-32.232H66.329V173.681z M78.039,153.16h8.817v8.812h-8.817V153.16z"/>
		<path style="fill:#030303;" d="M102.976,173.681h32.232v-32.232h-32.232V173.681z M114.686,153.16h8.811v8.812h-8.811V153.16z"/>
		<path style="fill:#030303;" d="M185.864,35.077h-32.241v32.232h32.241V35.077z M174.153,55.599h-8.82v-8.812h8.82V55.599z"/>
		<path style="fill:#030303;" d="M222.499,35.077h-32.238v32.232h32.238V35.077z M210.788,55.599h-8.817v-8.812h8.817V55.599z"/>
		<path style="fill:#030303;" d="M259.14,35.077h-32.232v32.232h32.232V35.077z M247.43,55.599h-8.812v-8.812h8.812V55.599z"/>
		<path style="fill:#030303;" d="M123.932,8.789v84.812v21.56H0v84.812V412.72h297.565V306.353h123.943V93.601V8.789H123.932z
			 M285.854,294.643v11.71v94.656H11.71V199.973h112.228h11.711h150.218v94.67H285.854z M285.854,188.262H135.643h-11.711H11.71
			v-61.392h112.228h11.711h150.218v61.392H285.854z M409.798,294.643H297.565v-94.67v-84.812H135.643v-21.56h274.145v201.042
			H409.798z M409.798,81.89H135.643V20.499h274.145V81.89H409.798z"/>
	</g>
</g>
<g>
</g>
<g>
</g>
<g>
</g>
<g>
</g>
<g>
</g>
<g>
</g>
<g>
</g>
<g>
</g>
<g>
</g>
<g>
</g>
<g>
</g>
<g>
</g>
<g>
</g>
<g>
</g>
<g>
</g>
</svg>
