<svg xmlns="http://www.w3.org/2000/svg" xmlns:xlink="http://www.w3.org/1999/xlink" version="1.1" width="349.75" height="349.749" style="" xml:space="preserve"><rect id="backgroundrect" width="100%" height="100%" x="0" y="0" fill="none" stroke="none"/>
















<g class="currentLayer" style=""><title>Layer 1</title><g id="svg_1" class="selected" fill="#04b8b8" fill-opacity="1" stroke="#ffffff" stroke-opacity="1">
	<g id="svg_2" fill="#04b8b8" fill-opacity="1" stroke="#ffffff" stroke-opacity="1">
		<path d="M175.99831851100922,5.027933120727539 C79.55831851100922,5.027933120727539 1.1173185110092163,83.46893312072754 1.1173185110092163,179.90293312072754 c0,96.434 78.441,174.874 174.887,174.874 c96.422,0 174.863,-78.44 174.863,-174.874 C350.8673185110092,83.46893312072754 272.42631851100924,5.027933120727539 175.99831851100922,5.027933120727539 zM128.1973185110092,146.65393312072754 l0.35200000000000015,-0.3840000000000002 c1.4260000000000002,-1.036 2.12,-2.657 1.8610000000000002,-4.354 c-3.5220000000000002,-21.191 -1.21,-30.027 -0.43000000000000016,-32.246 c6.155,-18.891000000000002 25.476,-27.628 29.268,-29.177 c0.808,-0.31800000000000017 2.3,-0.7690000000000003 3.813,-1.003 l0.451,-0.10500000000000002 l3.104,-0.1650000000000001 l0.02400000000000001,0.1920000000000001 l0.7200000000000003,-0.06900000000000005 c0.6400000000000003,-0.06900000000000005 1.252,-0.15300000000000008 2.021,-0.31500000000000017 l0.6850000000000006,-0.14600000000000007 c0.6060000000000003,0.009000000000000008 8.127,0.9600000000000003 19.302,4.386 l7.7650000000000015,2.672 c14.201,4.194 20.734,11.997 21.947,13.57 c11.373,12.884 8.322,32.339 5.506,42.784 c-0.31800000000000017,1.231 -0.126,2.498 0.5700000000000003,3.549 l0.6430000000000003,0.793 c0.8230000000000003,1.12 1.562,5.438 -0.906,14.609 c-0.46900000000000014,2.786 -1.501,5.05 -3.026,6.575 c-0.5640000000000003,0.6190000000000003 -0.9610000000000003,1.408 -1.104,2.3 c-3.8440000000000003,22.533 -24.031,47.741 -45.315,47.741 c-18.06,0 -38.671,-23.19 -42.379,-47.723 c-0.14100000000000001,-0.916 -0.522,-1.7240000000000002 -1.1560000000000001,-2.417 c-1.5430000000000001,-1.601 -2.528,-3.906 -3.122,-7.317 C126.9783185110092,153.98593312072754 126.80131851100921,148.81293312072754 128.1973185110092,146.65393312072754 zM87.65631851100922,244.37393312072754 c0.783,-0.991 5.149,-6.107 13.979,-9.476 c7.764,-2.3850000000000002 26.956,-8.762 37.446,-16.363 c0.49200000000000016,-0.265 0.976,-0.781 1.3780000000000001,-1.189 c0.97,-1.045 2.453,-2.6420000000000003 4.209,-4.27 l0.979,-0.93 l0.997,0.937 c9.242,8.713000000000001 19.467,13.486 28.796,13.486 c9.8,0 19.903,-4.239 29.241,-12.273 l0.7320000000000003,-0.6250000000000003 l1.9809999999999999,0.9610000000000003 c1.771,1.621 4.834,3.849 6.257,4.527 l1.8250000000000002,0.8900000000000003 l-0.1910000000000001,0.1970000000000001 l0.811,0.49200000000000016 c1.723,1.039 3.597,2.048 5.795,3.135 c2.222,0.979 4.083,1.6990000000000007 6.004,2.3360000000000003 c1.622,0.528 10.257,3.423 20.08,7.963 l1.874,0.5640000000000003 c9.607,3.681 13.871,8.791 14.291,9.325 c11.403,16.897 15.774000000000001,48.429 17.402,65.999 c-29.784,24.181 -67.242,37.493 -105.531,37.493 c-38.308,0 -75.771,-13.312 -105.541,-37.506 C72.06431851100922,292.52593312072753 76.39931851100921,261.0959331207275 87.65631851100922,244.37393312072754 z" id="svg_3" fill="#04b8b8" fill-opacity="1" stroke="#ffffff" stroke-opacity="1"/>
	</g>
</g><g id="svg_4">
</g><g id="svg_5">
</g><g id="svg_6">
</g><g id="svg_7">
</g><g id="svg_8">
</g><g id="svg_9">
</g><g id="svg_10">
</g><g id="svg_11">
</g><g id="svg_12">
</g><g id="svg_13">
</g><g id="svg_14">
</g><g id="svg_15">
</g><g id="svg_16">
</g><g id="svg_17">
</g><g id="svg_18">
</g></g></svg>